<svg width="512" height="512" viewBox="0 0 512 512" fill="none" xmlns="http://www.w3.org/2000/svg">
  <rect width="512" height="512" fill="#FFFEF7"/>
  <g transform="translate(40, 180) scale(2.94)">
    <path d="M38.0876 44.9583L33.9054 34.8016H12.6212L8.66305 44.8836C8.21496 46.0038 7.91624 47.0493 7.91624 47.8708C7.91624 50.186 9.63391 51.0075 14.7123 51.1568V53.1732H0V51.1568C2.09108 50.8581 3.65939 50.41 4.40621 48.3936L21.5829 5.00366L19.4919 0.0746805H26.96L46.8253 48.3936C47.6468 50.41 49.2151 50.8581 51.2315 51.1568V53.1732H32.113V51.1568C37.1167 51.0075 38.8344 50.2606 38.8344 47.9455C38.8344 47.0493 38.5356 46.0785 38.0876 44.9583ZM23.0766 8.14028L13.5173 32.4118H32.9345L23.0766 8.14028Z" fill="black"/>
    <path d="M74.1056 27.3334H66.9362V45.7051C66.9362 49.7379 69.102 50.7087 74.255 50.7087H75.1512C83.4408 50.7087 87.1002 46.3772 87.1002 39.1331C87.1002 32.5611 83.2914 27.3334 74.1056 27.3334ZM72.4626 3.2113H66.9362V24.8689H72.4626C80.827 24.8689 84.6357 21.1349 84.6357 13.8908C84.6357 7.16942 80.4535 3.2113 72.4626 3.2113ZM75.9727 53.1732H53.3442V51.1568C58.8706 50.4847 59.9161 50.1113 59.9161 45.8544V8.0656C59.9161 3.80876 58.8706 3.43535 53.3442 2.76321V0.746814H74.255C85.6813 0.746814 91.9545 5.15302 91.9545 13.6667C91.9545 21.2095 84.7851 25.1677 77.8397 25.9892C87.6977 26.3626 94.419 31.2915 94.419 39.1331C94.419 47.4974 87.9217 53.1732 75.9727 53.1732Z" fill="black"/>
    <path d="M131.392 0C138.038 0 143.341 1.64299 147 4.4062L144.685 15.3097H142.668C142.818 6.8707 138.71 2.46449 131.392 2.46449C116.157 2.46449 108.315 20.388 108.315 33.3826C108.315 44.8836 112.572 51.4555 120.861 51.4555C129.3 51.4555 135.051 46.6012 139.532 36.5939H141.772L137.964 49.8872C132.96 52.4264 127.657 53.92 120.861 53.92C107.792 53.92 100.772 45.8544 100.772 33.3826C100.772 17.6248 113.095 0 131.392 0Z" fill="black"/>
  </g>
</svg>
